<svg xmlns="http://www.w3.org/2000/svg" xmlns:xlink="http://www.w3.org/1999/xlink" viewBox="0 0 671.88 524.62"><defs><style>.cls-1{isolation:isolate;}.cls-2{fill:#3d3d6b;}.cls-3{fill:url(#radial-gradient);}.cls-4{fill:url(#radial-gradient-2);}.cls-5{fill:url(#radial-gradient-3);}.cls-6{fill:url(#radial-gradient-4);}.cls-7{fill:url(#radial-gradient-5);}.cls-8{fill:#fff;opacity:0.3;mix-blend-mode:overlay;}</style><radialGradient id="radial-gradient" cx="449.42" cy="390.17" r="167.72" gradientUnits="userSpaceOnUse"><stop offset="0.17" stop-color="#21144f"/><stop offset="0.43" stop-color="#241852"/><stop offset="0.69" stop-color="#2c245a"/><stop offset="0.95" stop-color="#393867"/><stop offset="1" stop-color="#3d3d6b"/></radialGradient><radialGradient id="radial-gradient-2" cx="757.68" cy="267.42" r="308.04" gradientUnits="userSpaceOnUse"><stop offset="0" stop-color="#18dab6"/><stop offset="0" stop-color="#18d9b6"/><stop offset="0.17" stop-color="#19b5b6"/><stop offset="0.34" stop-color="#1a99b6"/><stop offset="0.5" stop-color="#1b85b6"/><stop offset="0.67" stop-color="#1b79b6"/><stop offset="0.83" stop-color="#1b75b6"/></radialGradient><radialGradient id="radial-gradient-3" cx="686.2" cy="464.55" r="230.53" xlink:href="#radial-gradient-2"/><radialGradient id="radial-gradient-4" cx="157.27" cy="442.98" r="529.51" gradientUnits="userSpaceOnUse"><stop offset="0" stop-color="#f9ac0a"/><stop offset="0.01" stop-color="#f9aa0b"/><stop offset="0.23" stop-color="#f2752c"/><stop offset="0.43" stop-color="#ed4b45"/><stop offset="0.61" stop-color="#ea2d58"/><stop offset="0.77" stop-color="#e81b63"/><stop offset="0.88" stop-color="#e71467"/></radialGradient><radialGradient id="radial-gradient-5" cx="339.74" cy="334.65" fx="911.3609003298179" fy="646.0130187101272" r="650.92" gradientUnits="userSpaceOnUse"><stop offset="0" stop-color="#f9ac0a"/><stop offset="0.01" stop-color="#f9aa0b"/><stop offset="0.2" stop-color="#f2752c"/><stop offset="0.39" stop-color="#ed4b45"/><stop offset="0.55" stop-color="#ea2d58"/><stop offset="0.69" stop-color="#e81b63"/><stop offset="0.79" stop-color="#e71467"/></radialGradient></defs><g class="cls-1"><g id="Layer_1" data-name="Layer 1"><path class="cls-2" d="M355.24,803.75a75.51,75.51,0,0,1-70.11-103.34L433.55,326.76a75.46,75.46,0,0,1,140.27,55.71L425.4,756.13A75.5,75.5,0,0,1,355.24,803.75Z" transform="translate(-204.12 -279.13)"/><path class="cls-3" d="M495.78,381.09c-10.29-2.75-43.82-20.12-72.7-28L340.35,561.38c44.11-23.85,112.07-46.92,163.33-2.34h0l45.49-114.51C528.63,415.61,504.1,383.31,495.78,381.09Z" transform="translate(-204.12 -279.13)"/><path class="cls-4" d="M789.57,457.59a75.51,75.51,0,0,1-70.11-103.34l10.92-27.49a75.46,75.46,0,1,1,140.27,55.71L859.73,410A75.5,75.5,0,0,1,789.57,457.59Z" transform="translate(-204.12 -279.13)"/><path class="cls-5" d="M722.23,756.13,799,562.88a75.47,75.47,0,1,0-140.27-55.72L582,700.41a75.46,75.46,0,1,0,140.26,55.72Z" transform="translate(-204.12 -279.13)"/><path class="cls-6" d="M356.39,803.75A75.51,75.51,0,0,0,426.5,700.41L349.74,507.16a75.47,75.47,0,1,0-140.27,55.72l76.76,193.25A75.5,75.5,0,0,0,356.39,803.75Z" transform="translate(-204.12 -279.13)"/><path class="cls-7" d="M722.23,700.41,573.82,326.76a75.12,75.12,0,0,0-27.91-34.67c-.73-.49-1.52-.92-2.28-1.39-1.37-.86-2.75-1.73-4.18-2.5-.89-.48-1.83-.9-2.74-1.34-1.4-.68-2.8-1.36-4.24-1.95-.32-.13-.61-.3-.93-.43-.72-.28-1.45-.47-2.17-.73-1.3-.47-2.59-.93-3.91-1.33-1.13-.34-2.27-.64-3.42-.92s-2.46-.61-3.71-.86-2.43-.44-3.65-.62-2.41-.34-3.63-.46-2.47-.2-3.7-.26-2.45-.1-3.68-.1-2.43,0-3.65.1-2.48.13-3.72.26-2.42.28-3.62.46-2.43.37-3.65.62-2.49.54-3.73.86-2.26.58-3.39.91c-1.34.41-2.65.87-4,1.35-.7.25-1.42.44-2.13.72-.32.13-.62.3-.94.44-1.29.53-2.55,1.13-3.81,1.74-1,.49-2.05.95-3,1.49s-2.17,1.25-3.25,1.9-2.13,1.25-3.16,1.93-1.86,1.35-2.79,2-2.11,1.53-3.11,2.36-1.75,1.56-2.62,2.34-1.89,1.67-2.77,2.55-1.74,1.87-2.59,2.81-1.57,1.69-2.3,2.58-1.61,2.1-2.39,3.16-1.37,1.8-2,2.74-1.33,2.13-2,3.22-1.28,2.1-1.86,3.18-1,2.06-1.52,3.11c-.59,1.23-1.18,2.46-1.71,3.73-.14.33-.31.64-.44,1L376.73,469.81l11.68-4.62a72.61,72.61,0,0,1,93.49,39L582,756.13a75.46,75.46,0,0,0,140.26-55.72Z" transform="translate(-204.12 -279.13)"/><path class="cls-8" d="M659.08,541.44,573.82,326.76a75.12,75.12,0,0,0-27.91-34.67c-.73-.49-1.52-.92-2.28-1.39-1.37-.86-2.75-1.73-4.18-2.5-.89-.48-1.83-.9-2.74-1.34-1.4-.68-2.8-1.36-4.24-1.95-.32-.13-.61-.3-.93-.43-.72-.28-1.45-.47-2.17-.73-1.3-.47-2.59-.93-3.91-1.33-1.13-.34-2.27-.64-3.42-.92s-2.46-.61-3.71-.86-2.43-.44-3.65-.62-2.41-.34-3.63-.46-2.47-.2-3.7-.26-2.45-.1-3.68-.1-2.43,0-3.65.1-2.48.13-3.72.26-2.42.28-3.62.46-2.43.37-3.65.62-2.49.54-3.73.86-2.26.58-3.39.91c-1.34.41-2.65.87-4,1.35-.7.25-1.42.44-2.13.72-.32.13-.62.3-.94.44-1.29.53-2.55,1.13-3.81,1.74-1,.49-2.05.95-3,1.49s-2.17,1.25-3.25,1.9-2.13,1.25-3.16,1.93-1.86,1.35-2.79,2-2.11,1.53-3.11,2.36-1.75,1.56-2.62,2.34-1.89,1.67-2.77,2.55-1.74,1.87-2.59,2.81-1.57,1.69-2.3,2.58-1.61,2.1-2.39,3.16-1.37,1.8-2,2.74-1.33,2.13-2,3.22-1.28,2.1-1.86,3.18-1,2.06-1.52,3.11c-.59,1.23-1.18,2.46-1.71,3.73-.14.33-.31.64-.44,1l-15.86,39.92C491.49,381.36,608.31,423.06,659.08,541.44Z" transform="translate(-204.12 -279.13)"/><path class="cls-8" d="M251.75,464.88a75.49,75.49,0,0,0-47.32,76.56c6.32-.52,137.16-9.51,215.83,143.28h0L349.74,507.16A75.47,75.47,0,0,0,251.75,464.88Z" transform="translate(-204.12 -279.13)"/></g></g></svg>